<svg xmlns="http://www.w3.org/2000/svg" viewBox="0 0 512 512">
  <defs>
    <linearGradient id="grad" x1="0%" y1="0%" x2="100%" y2="100%">
      <stop offset="0%" style="stop-color:#f97316"/>
      <stop offset="50%" style="stop-color:#ec4899"/>
      <stop offset="100%" style="stop-color:#a855f7"/>
    </linearGradient>
  </defs>
  <!-- Background -->
  <rect width="512" height="512" rx="100" fill="url(#grad)"/>
  <!-- Sparkles icon (simplified) -->
  <g transform="translate(128, 128) scale(1)">
    <path fill="white" d="M128 0L156.8 99.2L256 128L156.8 156.8L128 256L99.2 156.8L0 128L99.2 99.2L128 0Z"/>
  </g>
  <!-- Small sparkle top right -->
  <g transform="translate(340, 80) scale(0.4)">
    <path fill="white" opacity="0.8" d="M64 0L78.4 49.6L128 64L78.4 78.4L64 128L49.6 78.4L0 64L49.6 49.6L64 0Z"/>
  </g>
  <!-- Small sparkle bottom left -->
  <g transform="translate(80, 340) scale(0.35)">
    <path fill="white" opacity="0.6" d="M64 0L78.4 49.6L128 64L78.4 78.4L64 128L49.6 78.4L0 64L49.6 49.6L64 0Z"/>
  </g>
</svg>
